# xmcd
#
# Track frame offsets: 
#        150
#        34237
#        55035
#        78405
#        101092
#        121565
#        145782
#        163355
#        186157
#        204692
#        219247
#        233515
#        242884
#        271060
#
# Disc length: 4217 seconds
#
# Revision: 3
# Processed by: cddbd v1.5.2PL0 Copyright (c) Steve Scherf et al.
# Submitted via: ExactAudioCopy v0.99pb5
#
DISCID=bd10770e
DTITLE=Late September Dogs - On the cold Hillside
DYEAR=1900
DGENRE=
TTITLE0=Wherever I'm home
TTITLE1=Is there no mercy
TTITLE2=Violent Games
TTITLE3=One more dream
TTITLE4=Bold lover
TTITLE5=The horese with no name
TTITLE6=The ballad of Goblin's night
TTITLE7=Instant Prana
TTITLE8=Into the sun
TTITLE9=Fighting Irish
TTITLE10=Strange Language
TTITLE11=Blind Nations
TTITLE12=Never so weary
TTITLE13=The damned river 1+2
EXTD=
EXTT0=Iklim\n
EXTT1=Ukays
EXTT2=Liza Hanim
EXTT3=Spring
EXTT4=Safura
EXTT5=Exist
EXTT6=Rahmat
EXTT7=Rozita Izlin
EXTT8=Rem
EXTT9=Stings
EXTT10=Ziana Zain
EXTT11=Budak Kacamata
EXTT12=Lestari
EXTT13=Senario
PLAYORDER=
